<svg xmlns="http://www.w3.org/2000/svg" xmlns:xlink="http://www.w3.org/1999/xlink" width="2000" zoomAndPan="magnify" viewBox="0 0 1500 562.499983" height="750" preserveAspectRatio="xMidYMid meet" version="1.0"><defs><g/><clipPath id="f9fa4b21f4"><path d="M 157 92 L 505 92 L 505 468.1875 L 157 468.1875 Z M 157 92 " clip-rule="nonzero"/></clipPath><clipPath id="01bae244cb"><path d="M 140.40625 106 L 397 106 L 397 455 L 140.40625 455 Z M 140.40625 106 " clip-rule="nonzero"/></clipPath></defs><g clip-path="url(#f9fa4b21f4)"><path fill="#5eb23f" d="M 333.199219 468.449219 C 483.566406 402.75 373.523438 302.890625 455.566406 181.5 C 462.828125 239.691406 477.40625 302.828125 445.136719 364.378906 C 478.136719 312.34375 494.121094 202.96875 447.332031 154.71875 C 435.132812 142.152344 420.917969 131.046875 404.933594 121.960938 C 319.410156 73.523438 211.988281 99.269531 157.269531 178.75 C 210.828125 95.242188 321 67.300781 408.351562 116.835938 C 426.164062 126.902344 441.660156 139.464844 454.714844 153.804688 C 458.800781 158.253906 462.644531 162.890625 466.179688 167.710938 C 509.980469 225.78125 517.789062 306.550781 479.664062 373.835938 C 448.0625 429.53125 392.433594 462.957031 333.199219 468.449219 " fill-opacity="1" fill-rule="evenodd"/></g><g clip-path="url(#01bae244cb)"><path fill="#0a7e9d" d="M 232.484375 133.722656 C 231.9375 136.40625 232.789062 139.089844 234.011719 140.738281 C 235.109375 140.371094 236.574219 139.214844 237.425781 138.421875 C 237.367188 136.652344 236.632812 136.53125 235.902344 135.125 C 234.863281 133.234375 234.742188 133.605469 232.484375 133.722656 Z M 225.714844 139.277344 C 227.179688 140.003906 228.644531 140.003906 229.4375 138.421875 C 230.59375 134.394531 226.203125 133.234375 224.3125 135.917969 C 223.214844 137.566406 224.3125 138.542969 225.714844 139.277344 Z M 224.066406 163.25 C 224.433594 161.785156 224.863281 162.945312 224.554688 159.585938 C 222.480469 158.917969 220.894531 159.222656 219.429688 160.804688 C 217.175781 163.25 219.003906 163.671875 218.273438 165.746094 C 216.441406 165.992188 216.6875 165.320312 214.671875 165.992188 C 213.269531 169.714844 216.441406 169.410156 218.027344 170.753906 C 218.636719 171.238281 218.882812 171.726562 219.429688 172.152344 C 226.082031 171.179688 223.703125 164.710938 224.066406 163.25 Z M 236.144531 157.085938 C 234.253906 156.539062 232.121094 155.253906 228.644531 157.207031 C 227.054688 158.003906 226.875 162.273438 226.875 164.042969 L 226.996094 166.050781 L 230.167969 166.238281 C 231.328125 161.480469 230.839844 164.222656 233.765625 162.027344 C 234.804688 161.175781 234.683594 160.5 235.292969 159.585938 C 236.269531 158.125 236.207031 159.035156 236.144531 157.085938 Z M 234.804688 147.328125 C 234.804688 150.621094 234.683594 151.105469 236.085938 153.367188 L 251.519531 151.351562 C 253.46875 151.167969 257.742188 152.757812 257.742188 146.289062 C 257.742188 144.523438 256.03125 143.546875 253.898438 143.546875 C 250.296875 143.546875 246.210938 148.121094 242.308594 146.839844 C 240.234375 146.167969 242.367188 146.472656 239.316406 146.105469 L 239.074219 146.046875 L 238.644531 145.921875 C 239.5 144.03125 240.234375 146.535156 240.234375 143.789062 C 240.234375 142.019531 238.160156 141.957031 236.511719 141.898438 C 234.683594 141.835938 233.09375 141.59375 231.570312 141.777344 C 229.679688 142.082031 230.167969 144.03125 231.328125 145.066406 C 232.363281 145.984375 234.070312 145.984375 234.804688 147.328125 Z M 217.296875 147.875 C 216.6875 150.4375 217.113281 151.597656 220.40625 153.855469 C 221.140625 154.40625 222.421875 154.585938 223.578125 154.28125 C 226.203125 153.609375 225.957031 152.207031 226.019531 151.71875 L 229.375 154.160156 C 232.609375 153.246094 233.949219 152.085938 232.242188 149.09375 L 229.3125 148.851562 C 228.214844 146.839844 227.910156 143.851562 224.554688 145.984375 C 222.175781 147.511719 220.894531 147.875 217.296875 147.875 Z M 193.8125 158.671875 C 194.726562 162.210938 201.191406 163.738281 204.667969 162.027344 C 207.230469 160.804688 206.621094 159.28125 209.0625 158.550781 C 211.074219 158.003906 210.097656 158.1875 211.503906 157.148438 C 212.292969 156.539062 213.636719 156.234375 214.308594 155.683594 C 214.246094 153.0625 213.882812 153.304688 212.171875 152.328125 C 212.539062 151.351562 212.476562 151.71875 212.234375 149.949219 C 207.78125 149.769531 209.914062 152.144531 208.207031 155.253906 L 204.179688 153 C 202.472656 151.65625 202.105469 151.167969 199.972656 152.757812 C 198.019531 154.21875 194.605469 156.597656 193.8125 158.671875 Z M 274.089844 347.046875 C 271.527344 345.582031 264.023438 344.484375 262.988281 351.074219 C 264.753906 351.378906 264.695312 350.828125 266.402344 351.558594 C 269.511719 352.777344 273.722656 351.5 275.550781 350.15625 C 275.550781 348.933594 275.371094 347.777344 274.089844 347.046875 Z M 262.378906 344.421875 C 260.972656 343.933594 260.117188 343.078125 258.59375 342.285156 C 257.25 341.617188 255.667969 341.003906 254.445312 340.394531 C 243.40625 335.148438 244.199219 338.019531 240.234375 338.078125 L 240.234375 341.371094 C 245.90625 340.945312 246.941406 340.761719 253.226562 344.117188 C 256.824219 346.066406 255.363281 346.496094 257.617188 346.675781 L 258.410156 346.742188 C 258.839844 346.863281 262.070312 349.972656 262.378906 344.421875 Z M 374.496094 197.59375 C 376.085938 197.222656 376.449219 196.738281 377.730469 198.507812 C 377.484375 199.542969 378.15625 198.996094 376.390625 199.421875 C 377.484375 205.277344 377.789062 200.765625 378.035156 204.363281 C 380.109375 204.789062 379.496094 204.304688 380.109375 206.496094 C 385.234375 207.230469 383.035156 208.265625 385.660156 208.265625 C 387.367188 208.265625 390.417969 206.863281 391.519531 206.132812 C 393.042969 205.15625 394.75 203.019531 396.03125 202.53125 C 396.03125 199.421875 395.480469 197.835938 393.773438 196.070312 C 389.320312 191.492188 390.296875 194.910156 388.160156 194.910156 L 380.351562 194.910156 C 378.523438 194.910156 380.65625 193.566406 376.695312 193.078125 C 375.410156 194.785156 374.863281 194.664062 374.496094 197.59375 Z M 306.726562 157.027344 C 307.394531 160.992188 303.734375 161.355469 306.480469 164.710938 C 309.105469 164.527344 308.066406 163.25 311.117188 162.945312 C 311.484375 163.554688 311.605469 163.554688 311.910156 164.222656 C 312.335938 165.261719 311.847656 165.015625 312.582031 165.746094 C 313.617188 166.847656 315.324219 165.625 314.410156 168.679688 C 312.03125 168.433594 313.007812 167.03125 310.75 167.03125 C 305.136719 167.03125 307.210938 176.058594 310.019531 176.058594 C 311.910156 176.058594 312.824219 175.390625 314.289062 174.78125 C 314.289062 173.25 314.164062 173.25 313.554688 172.21875 L 315.386719 172.21875 C 317.460938 178.621094 311.664062 177.21875 310.566406 180.265625 C 310.324219 181 309.652344 181.550781 309.652344 182.523438 C 309.773438 198.140625 310.261719 188.808594 311.664062 194.785156 C 311.972656 196.128906 312.277344 198.445312 312.398438 200.09375 C 314.351562 199.972656 314.898438 199.179688 316.546875 199.726562 C 316.484375 200.765625 315.386719 201.128906 315.386719 203.082031 C 315.386719 207.230469 315.816406 207.960938 318.4375 211.011719 C 319.230469 211.929688 320.085938 212.351562 320.449219 213.269531 C 321.367188 215.890625 319.777344 215.832031 323.4375 216.683594 C 329.84375 218.210938 329.722656 223.515625 334.785156 219.675781 C 334.84375 215.953125 336.0625 214.917969 336.1875 211.988281 C 336.308594 208.390625 336.917969 207.105469 339.175781 205.644531 C 339.175781 203.324219 338.996094 201.3125 339.605469 199.300781 C 340.519531 196.496094 341.003906 198.203125 341.800781 194.785156 C 345.582031 194.054688 347.960938 194.175781 350.828125 192.042969 C 354.367188 189.359375 355.828125 185.757812 357.113281 184.78125 C 357.171875 184.722656 357.84375 184.292969 357.964844 184.234375 C 359.796875 183.132812 362.296875 182.953125 364.738281 182.402344 C 374.132812 180.511719 368.640625 178.496094 374.3125 178.496094 C 374.925781 177.339844 375.65625 176.667969 376.265625 175.570312 C 377 174.230469 376.816406 173.191406 377.972656 172.335938 L 376.875 168.984375 C 376.449219 166.542969 376.203125 168.25 375.230469 166.480469 C 374.863281 165.078125 375.78125 162.027344 375.65625 161.234375 C 375.351562 159.527344 374.679688 161.417969 374.679688 159.40625 C 374.679688 157.941406 375.167969 158.308594 375.410156 158.0625 C 375.960938 157.453125 376.144531 157.390625 376.085938 157.453125 C 376.390625 157.085938 376.019531 157.515625 376.390625 156.902344 C 376.875 156.109375 376.570312 156.355469 377.238281 155.558594 C 380.78125 150.925781 377.425781 151.71875 376.875 148.789062 C 378.582031 148.972656 378.21875 150.132812 380.046875 150.800781 C 381.265625 149.582031 381.636719 149.277344 381.449219 146.960938 C 376.203125 145.742188 379.132812 146.167969 376.019531 143.484375 C 375.839844 143.363281 369.679688 139.152344 373.582031 139.152344 C 375.167969 139.152344 375.714844 140.191406 377.179688 139.152344 C 378.582031 137.382812 374.863281 135.613281 374.191406 135.0625 C 372.847656 134.089844 370.898438 133.054688 370.898438 130.976562 C 370.898438 125.183594 375.714844 123.535156 375.78125 119.085938 C 358.511719 113.652344 364.613281 118.105469 361.378906 118.351562 L 361.503906 114.996094 C 356.503906 113.289062 359.125 114.265625 355.21875 115.910156 C 354.367188 114.8125 355.101562 115.179688 354.429688 113.898438 C 353.941406 112.925781 353.878906 113.289062 353.390625 112.496094 C 352.960938 111.886719 352.84375 111.214844 352.535156 110.847656 C 351.988281 110.117188 351.5625 110.238281 351.191406 109.628906 L 377.121094 117.4375 C 363.453125 112.128906 349.058594 108.46875 334.054688 106.699219 C 334.113281 106.757812 334.175781 106.757812 334.175781 106.757812 C 332.589844 110.117188 329.292969 107.433594 327.769531 107.433594 C 324.960938 107.433594 327.101562 108.222656 323.925781 108.59375 C 318.191406 109.324219 312.519531 109.203125 306.847656 108.832031 C 303.796875 108.652344 301.964844 110.058594 298.792969 109.566406 C 296.597656 109.203125 294.828125 108.289062 292.328125 108.59375 C 285.617188 109.507812 279.882812 110.910156 273.296875 112.003906 C 266.828125 113.105469 262.496094 116.460938 255.605469 116.460938 C 254.324219 117.867188 255.300781 118.171875 252.800781 118.351562 C 251.03125 118.535156 250.117188 118.839844 249.566406 120.304688 C 250.421875 122.074219 251.03125 120.972656 251.699219 122.742188 C 248.527344 122.808594 250.117188 121.953125 248.222656 121.953125 L 245.355469 121.953125 C 244.5625 122.4375 239.867188 126.890625 239.136719 127.625 C 237.792969 129.085938 238.339844 129.941406 239.195312 131.832031 C 241.269531 136.285156 242.308594 135.0625 244.808594 134.03125 C 246.089844 135.492188 245.785156 134.945312 245.722656 138.175781 C 244.625 138.96875 243.160156 139.824219 242.183594 140.921875 C 242.246094 140.984375 242.550781 141.410156 242.671875 141.53125 C 244.929688 144.03125 253.347656 141.777344 254.933594 140.308594 C 256.765625 141.164062 256.582031 141.652344 259.082031 140.800781 C 264.9375 138.664062 261.644531 137.8125 263.839844 133.785156 C 265.183594 131.40625 265.363281 131.894531 267.378906 131.464844 C 269.636719 130.917969 270.796875 124.390625 276.042969 121.828125 C 279.273438 120.304688 280.371094 119.265625 283.179688 116.945312 C 285.3125 115.238281 285.070312 116.09375 285.128906 112.800781 C 286.898438 112.679688 288.425781 112.925781 290.621094 112.25 C 292.023438 111.824219 294.15625 111.03125 295.804688 111.824219 C 295.746094 113.289062 295.925781 112.679688 293.609375 113.46875 C 290.863281 114.382812 288.851562 115.851562 286.167969 116.640625 L 286.226562 119.203125 C 287.570312 119.265625 288.363281 119.390625 289.035156 120.304688 C 288.363281 121.769531 288.117188 120.363281 286.960938 122.742188 C 281.835938 122.742188 281.347656 124.875 277.382812 126.039062 C 275.796875 126.523438 274.699219 125.855469 274.699219 127.4375 C 274.699219 134.089844 280.980469 129.636719 286.167969 131.285156 C 284.765625 135.003906 279.882812 132.199219 277.75 132.75 C 276.894531 132.992188 276.40625 133.539062 275.796875 133.96875 C 275.980469 137.445312 276.832031 135.859375 278.480469 136.652344 C 279.457031 137.078125 279.761719 138.910156 280.3125 139.886719 C 284.886719 139.277344 289.402344 138.605469 294.035156 138.605469 C 297.023438 138.605469 301.539062 143.605469 302.578125 145.859375 C 303.1875 147.203125 302.820312 146.410156 303.554688 147.390625 C 304.34375 148.546875 306.542969 156.050781 306.726562 157.027344 Z M 257.496094 173.679688 C 259.265625 175.019531 260.179688 177.644531 260.179688 180.390625 C 261.949219 180.390625 264.753906 180.570312 264.753906 182.28125 C 263.535156 183.378906 260.789062 182.402344 258.898438 183.132812 C 257.496094 184.046875 256.886719 188.808594 260.914062 188.503906 C 264.574219 188.199219 264.753906 184.96875 267.257812 185.148438 C 267.625 191.554688 265.667969 188.503906 263.960938 193.6875 C 263.65625 194.664062 263.839844 195.273438 263.65625 196.496094 C 257.863281 196.800781 255.605469 197.042969 255.605469 201.984375 C 260.914062 203.691406 259.203125 202.46875 264.207031 201.191406 C 270.429688 206.011719 265.488281 206.683594 275.859375 211.320312 C 278.175781 212.351562 279.027344 213.207031 281.164062 211.929688 C 280.554688 207.535156 276.347656 207.597656 276.101562 205.402344 C 279.273438 205.644531 281.347656 207.839844 284.519531 208.570312 C 286.714844 202.289062 284.949219 202.167969 282.871094 199.726562 C 279.640625 195.945312 278.910156 196.375 279.089844 191.246094 C 283.605469 191.976562 282.082031 197.773438 286.960938 197.652344 C 290.5 197.59375 292.023438 189.292969 291.902344 189.050781 C 290.984375 186.917969 290.070312 188.136719 288.546875 186.917969 L 285.558594 184.234375 C 279.882812 179.476562 280.1875 182.953125 280.128906 178.496094 C 281.105469 178.4375 281.289062 178.378906 281.777344 178.074219 C 281.777344 177.828125 280.796875 170.992188 280.3125 171.789062 C 280.25 171.910156 280.007812 171.667969 279.824219 171.542969 C 277.933594 170.507812 278.847656 170.933594 277.625 169.773438 C 275.980469 168.308594 275.980469 169.652344 274.332031 168.128906 C 271.34375 165.320312 272.929688 164.101562 268.050781 165.078125 C 267.5 164.28125 266.953125 163.859375 266.21875 163.0625 C 265.242188 161.90625 264.144531 159.464844 263.414062 158.003906 C 262.496094 156.171875 262.804688 157.820312 262.863281 155.378906 C 257.679688 154.097656 262.316406 154.464844 253.898438 154.464844 C 252.371094 154.464844 253.410156 155.132812 250.664062 155.253906 C 249.933594 155.320312 249.8125 155.195312 249.136719 155.4375 C 248.222656 155.746094 249.382812 155.625 247.734375 156.292969 C 244.320312 151.960938 238.21875 159.652344 236.632812 163.128906 C 236.144531 164.042969 235.292969 167.03125 234.863281 167.761719 C 236.9375 169.410156 237.183594 168.25 238.890625 170.6875 C 237.609375 172.828125 237.671875 171.484375 236.757812 174.839844 C 241.511719 175.933594 248.40625 176 253.53125 175.390625 C 256.640625 174.960938 255.667969 174.410156 257.496094 173.679688 Z M 228.03125 235.714844 C 231.511719 236.941406 234.621094 238.703125 237.671875 240.65625 C 240.539062 242.492188 242.917969 240.84375 244.808594 243.035156 C 245.84375 245.417969 243.101562 252.003906 246.941406 254.078125 L 249.992188 255.847656 C 254.324219 253.714844 250.664062 250.480469 250.664062 247.128906 L 251.214844 243.769531 C 251.824219 241.816406 250.96875 242.917969 252.859375 242.1875 C 255.175781 241.390625 254.445312 241.085938 255.542969 238.890625 C 256.703125 236.636719 256.460938 237.058594 255.910156 234.191406 C 254.996094 229.066406 251.824219 227.972656 253.53125 225.832031 C 255.175781 223.761719 255.058594 224.921875 254.996094 221.199219 C 254.996094 219.1875 255.058594 217.175781 254.996094 215.160156 C 254.996094 210.21875 253.289062 211.195312 265.976562 211.320312 C 266.828125 212.597656 269.207031 215.160156 270.246094 215.890625 C 271.710938 216.804688 272.136719 216.195312 272.867188 217.90625 C 275.003906 222.785156 272.199219 225.410156 272.015625 227.238281 C 273.296875 227.238281 274.273438 226.8125 275.066406 227.058594 C 277.320312 227.667969 277.199219 229.800781 280.25 226.566406 C 282.933594 223.761719 280.980469 222.726562 282.566406 220.773438 C 284.703125 218.148438 286.53125 222.601562 287.203125 224.128906 C 288.242188 226.261719 289.460938 228.03125 290.316406 230.289062 C 290.4375 230.59375 290.558594 230.898438 290.679688 231.324219 C 290.984375 232.058594 291.167969 232.117188 291.289062 232.542969 C 291.960938 234.863281 288.730469 234.863281 292.816406 238.035156 C 294.097656 239.011719 294.769531 240.171875 295.804688 241.390625 L 300.257812 241.636719 L 301.78125 245.050781 C 301.90625 245.417969 302.089844 246.027344 302.332031 246.332031 C 303.554688 247.917969 302.210938 246.394531 303.308594 247.0625 C 304.101562 247.554688 303.796875 247.1875 304.285156 247.859375 C 306.113281 250.175781 305.320312 254.136719 305.320312 257.433594 C 305.320312 259.507812 303.980469 258.46875 304.285156 261.765625 C 306.296875 262.496094 306.113281 262.375 308.675781 262.4375 C 309.410156 264.207031 309.347656 263.046875 309.714844 265.609375 C 309.957031 267.378906 310.382812 267.4375 311.359375 268.597656 C 312.945312 270.488281 312.703125 273.480469 309.652344 272.808594 C 304.894531 271.769531 305.992188 269.207031 295.746094 269.207031 C 296.230469 267.4375 297.207031 266.464844 297.878906 264.816406 C 298.734375 262.742188 300.746094 259.203125 300.5625 257.3125 C 297.148438 256.582031 296.964844 258.289062 296.660156 259.691406 C 295.683594 259.8125 289.277344 260.605469 288.730469 260.972656 C 289.15625 261.523438 289.707031 261.582031 290.558594 261.582031 L 290.5 264.875 C 285.433594 264.875 286.898438 264.816406 284.703125 262.132812 C 283.179688 260.238281 280.1875 261.339844 278.175781 262.191406 C 274.941406 263.476562 274.882812 263.351562 273.296875 266.21875 C 271.953125 268.597656 269.695312 268.84375 269.511719 271.464844 C 272.5625 271.160156 272.136719 268.234375 275.796875 265.851562 C 277.261719 264.875 280.796875 262.621094 282.75 263.351562 C 286.59375 264.753906 281.105469 267.378906 285.007812 270.730469 C 285.863281 271.402344 287.023438 271.585938 287.9375 272.074219 C 290.679688 273.292969 292.328125 272.867188 295.195312 272.257812 C 295.195312 275.796875 295.316406 275.183594 293.425781 277.078125 C 291.960938 278.421875 291.289062 278.726562 289.035156 279.089844 C 287.023438 279.394531 286.714844 280.492188 285.128906 281.589844 C 283.179688 282.933594 283.179688 282.871094 280.3125 282.871094 C 279.703125 279.453125 281.46875 281.164062 281.46875 278.601562 C 277.808594 278.359375 279.761719 279.515625 276.773438 280.308594 C 275.125 280.734375 274.332031 280.859375 273.113281 281.957031 L 270.367188 284.515625 C 269.695312 285.617188 270.304688 287.570312 270.304688 289.152344 C 268.292969 289.828125 266.402344 290.496094 264.753906 291.777344 C 262.378906 293.550781 262.742188 294.160156 261.460938 297.023438 C 260.609375 298.976562 259.753906 300.625 259.019531 303.125 C 257.070312 309.773438 257.679688 307.578125 254.203125 311.050781 C 252.25 313.007812 248.710938 314.59375 247.308594 316.972656 C 244.441406 321.972656 250.175781 323.925781 250.117188 332.039062 L 250.054688 333.441406 C 249.019531 333.441406 247.917969 333.441406 247.125 333.136719 C 245.722656 332.585938 244.199219 328.625 243.648438 327.035156 C 241.453125 321.121094 241.453125 319.839844 229.921875 321.246094 L 229.4375 323.316406 C 225.285156 323.925781 225.226562 321.667969 221.566406 321.667969 C 219.554688 321.667969 215.101562 325.332031 215.101562 327.097656 C 215.101562 339.117188 214.0625 335.882812 217.539062 342.46875 C 218.457031 344.179688 219.1875 346.132812 221.199219 346.617188 C 225.652344 347.65625 228.949219 344.972656 229.617188 340.519531 C 233.644531 340.519531 232.914062 340.089844 235.660156 341.738281 C 235.472656 345.15625 234.5 345.640625 234.5 352.109375 C 236.695312 353.453125 240.292969 353.695312 242.855469 354.792969 C 245.90625 356.136719 244.929688 360.34375 244.929688 364.367188 C 245.417969 365.222656 246.578125 366.261719 247.25 366.746094 C 248.773438 368.03125 248.894531 367.601562 250.785156 367.421875 C 256.703125 366.746094 254.203125 368.277344 258.167969 369.25 C 259.753906 368.277344 260.363281 366.382812 262.683594 365.347656 C 263.65625 364.980469 264.878906 364.675781 265.914062 364.308594 C 269.574219 362.964844 264.328125 359.734375 275.246094 365.039062 L 278.238281 366.628906 C 281.652344 368.210938 287.753906 366.078125 289.949219 367.421875 C 291.351562 368.277344 290.375 368.515625 291.472656 369.433594 C 292.328125 370.042969 294.402344 370.347656 296.292969 371.753906 C 297.695312 372.789062 301.539062 376.265625 302.578125 376.511719 C 307.640625 377.730469 313.128906 375.65625 316.910156 383.40625 C 319.777344 389.441406 315.753906 387.671875 322.707031 389.015625 C 324.171875 389.257812 325.027344 389.625 326.550781 390.109375 C 332.347656 391.882812 331.367188 393.042969 335.578125 392.433594 C 338.871094 391.945312 347.046875 396.335938 350.097656 397.433594 C 350.097656 404.570312 349.363281 403.472656 345.21875 407.378906 C 343.691406 408.777344 341.984375 409.570312 341.308594 410.976562 C 340.886719 411.644531 340.277344 415.488281 339.785156 416.890625 C 338.691406 420.003906 336.375 423.847656 333.625 425.613281 C 332.160156 426.589844 328.320312 425.308594 322.097656 429.398438 C 320.386719 430.554688 320.265625 433.542969 315.324219 437.511719 C 314.410156 438.242188 313.921875 438.304688 313.25 439.035156 C 311.910156 440.5 313.191406 440.195312 310.933594 440.683594 C 303.675781 442.085938 306.542969 444.585938 300.804688 445.320312 C 299.039062 445.566406 296.171875 446.234375 294.949219 446.964844 C 291.902344 448.859375 290.4375 451.539062 287.8125 453.003906 C 287.144531 453.371094 287.753906 453.003906 287.144531 453.429688 C 286.714844 453.738281 285.496094 454.714844 282.8125 453.371094 C 281.105469 452.578125 279.089844 453.1875 277.140625 452.699219 C 276.957031 449.710938 275.734375 452.515625 276.957031 449.652344 C 277.625 448.003906 277.625 447.269531 276.589844 446.175781 C 273.84375 443.308594 273.90625 443.308594 275.492188 439.585938 C 277.320312 435.191406 274.757812 435.253906 275.859375 432.203125 C 276.222656 431.351562 276.222656 432.082031 276.347656 430.496094 L 276.527344 420.183594 C 276.285156 418.90625 276.589844 420.0625 275.917969 419.148438 C 274.515625 417.320312 275.125 417.257812 272.6875 416.28125 C 265 413.109375 264.449219 411.585938 259.8125 405.363281 C 259.144531 404.445312 258.839844 403.777344 258.226562 403.046875 C 248.652344 390.964844 253.289062 397.128906 252.371094 389.746094 C 252.25 388.40625 252.25 387.0625 252.3125 385.660156 C 253.835938 384.320312 257.742188 380.472656 257.742188 378.21875 C 257.742188 376.019531 255.789062 371.449219 253.53125 371.449219 C 246.757812 371.449219 250.542969 373.21875 243.953125 369.371094 C 240.109375 367.050781 238.28125 361.015625 234.195312 359.550781 C 232.730469 359.0625 232.730469 359.0625 231.449219 358.394531 C 229.984375 357.597656 229.558594 358.023438 228.460938 357.539062 C 227.421875 357.050781 227.726562 356.5 226.324219 355.769531 C 224.738281 354.855469 225.226562 355.339844 224.007812 354.121094 C 222.421875 352.472656 220.101562 352.960938 217.96875 352.777344 C 216.015625 352.597656 214.734375 351.191406 212.84375 350.398438 C 207.414062 348.082031 202.230469 345.03125 200.582031 339.175781 C 199.484375 335.210938 196.617188 332.890625 194.421875 329.722656 L 186.1875 316.609375 C 185.269531 315.382812 186.0625 316.058594 184.964844 315.753906 C 184.539062 317.03125 184.660156 317.21875 185.394531 318.132812 C 187.222656 320.511719 185.636719 320.511719 187.164062 321.730469 L 188.808594 324.292969 C 189.359375 325.570312 189.96875 326.550781 190.820312 327.949219 C 192.101562 330.027344 196.375 332.34375 193.140625 334.90625 C 189.90625 334.480469 187.40625 327.644531 185.699219 325.265625 C 184.417969 323.558594 183.625 321.609375 182.707031 319.78125 C 181 316.421875 180.207031 310.203125 177.15625 307.882812 C 173.863281 305.5 168.371094 293.789062 168.371094 290.863281 C 168.371094 286.410156 167.824219 281.957031 168.800781 277.441406 C 169.105469 275.855469 169.777344 276.101562 168.921875 274.269531 C 167.457031 271.21875 169.53125 270.855469 166.789062 267.5 C 162.945312 262.800781 166.300781 261.277344 164.105469 257.070312 C 163.554688 256.03125 163.3125 255.480469 162.332031 254.75 C 160.625 253.46875 164.894531 248.710938 158.550781 248.710938 C 158.550781 246.273438 157.027344 243.585938 156.722656 241.027344 C 156.539062 239.625 156.964844 240.109375 156.234375 239.011719 L 154.160156 236.019531 C 152.757812 234.742188 152.328125 235.410156 151.355469 236.207031 C 149.890625 237.425781 150.5625 236.570312 149.34375 237.121094 C 148.121094 237.609375 147.695312 239.4375 147.265625 240.65625 C 145.984375 244.5 147.878906 247.613281 143.789062 248.652344 C 142.570312 246.515625 143.972656 244.625 142.753906 243.339844 C 142.019531 247.308594 141.230469 245.175781 140.617188 247.917969 C 143.972656 230.410156 149.953125 213.816406 158.125 198.507812 C 157.878906 199.117188 157.820312 199.605469 157.878906 199.910156 C 159.164062 200.707031 160.625 199.179688 162.152344 198.691406 C 164.164062 198.078125 165.507812 198.261719 167.945312 198.140625 C 168.496094 197.222656 168.558594 196.679688 169.105469 195.765625 C 169.65625 194.847656 170.324219 194.296875 170.875 193.625 C 173.375 190.824219 173.863281 191.613281 177.15625 191.613281 C 179.109375 191.613281 182.097656 189.359375 183.929688 189.292969 C 185.332031 189.292969 188.136719 190.027344 189.601562 190.699219 C 190.699219 191.128906 190.515625 191.003906 191.1875 191.613281 L 190.882812 194.480469 C 191.613281 194.847656 194.359375 193.566406 197.410156 193.566406 C 198.875 193.566406 198.570312 194.785156 199.667969 195.519531 C 200.15625 195.882812 200.21875 195.824219 200.886719 195.945312 C 200.949219 193.199219 201.496094 193.503906 199.910156 191.738281 C 198.507812 190.148438 199.300781 190.519531 197.042969 190.519531 C 195.582031 190.519531 196.066406 192.527344 193.628906 189.84375 C 191.613281 187.585938 191.917969 189.050781 189.664062 187.890625 C 189.234375 185.636719 190.457031 184.84375 192.222656 184.351562 C 194.847656 183.683594 194.300781 183.929688 195.886719 182.160156 C 193.75 181.121094 193.445312 182.953125 190.457031 182.339844 C 189.601562 181.179688 190.457031 182.28125 190.027344 181.367188 L 188.441406 178.683594 C 187.527344 180.027344 186.976562 179.839844 185.757812 181.121094 C 184.660156 182.339844 184.234375 182.585938 182.097656 182.160156 C 181.917969 177.828125 185.699219 171.296875 188.6875 168.066406 C 189.84375 166.847656 193.015625 166.480469 194.910156 166.480469 C 196.679688 166.480469 199.421875 168.800781 200.335938 169.59375 C 201.3125 170.382812 201.800781 170.933594 202.65625 171.605469 L 203.816406 172.582031 C 204.730469 173.554688 203.507812 173.25 205.21875 173.554688 C 205.277344 173.496094 205.339844 173.3125 205.339844 173.375 C 205.523438 174.046875 205.523438 172.945312 205.523438 172.828125 C 206.316406 170.449219 206.5 168.003906 207.597656 165.6875 C 208.511719 163.917969 212.964844 160.195312 212.964844 164.40625 C 212.964844 165.992188 211.867188 167.089844 210.464844 167.457031 C 210.464844 169.652344 210.34375 172.21875 210.464844 174.351562 C 210.648438 178.867188 215.40625 175.8125 214.0625 180.511719 C 213.757812 181.671875 213.027344 181.914062 212.171875 182.523438 C 213.148438 187.527344 210.769531 186.1875 208.574219 186.917969 L 207.839844 187.222656 L 207.597656 187.34375 L 207.171875 187.585938 L 206.925781 187.710938 C 206.925781 187.710938 206.804688 187.769531 206.742188 187.832031 C 207.171875 188.746094 208.636719 189.480469 209.488281 190.332031 L 213.757812 190.273438 C 215.101562 188.871094 215.953125 188.257812 216.867188 186 C 217.785156 183.742188 217.664062 182.585938 219.371094 180.753906 C 222.785156 180.753906 220.589844 181.671875 222.664062 182.339844 C 223.703125 182.339844 225.59375 182.464844 224.921875 180.941406 C 224.675781 180.332031 222.480469 179.78125 222.480469 178.253906 C 222.480469 171.789062 223.761719 173.3125 224.921875 171.296875 C 226.082031 169.289062 224.800781 169.773438 228.335938 169.773438 C 229.800781 169.773438 230.71875 174.289062 230.71875 175.753906 C 230.71875 178.496094 229.800781 177.035156 231.328125 179.476562 C 232.304688 181.058594 231.996094 182.160156 232.609375 183.625 C 233.949219 183.195312 234.558594 181.304688 234.925781 179.902344 C 235.167969 180.144531 235.292969 180.207031 235.355469 180.207031 C 235.355469 180.265625 235.355469 180.390625 235.535156 180.695312 C 235.660156 181 235.71875 181.425781 235.839844 181.730469 C 236.9375 181.609375 236.632812 181.367188 237.488281 181.789062 C 237.488281 183.742188 236.207031 186.367188 237.0625 188.320312 C 238.21875 188.683594 238.464844 188.441406 239.441406 187.953125 C 239.683594 186.671875 239.621094 185.453125 240.171875 184.351562 C 240.78125 183.015625 241.574219 182.828125 242.183594 181.789062 C 242.796875 179.292969 239.929688 174.535156 249.933594 178.621094 C 249.992188 180.332031 249.566406 182.097656 249.566406 183.5625 C 249.566406 188.015625 251.089844 188.199219 247.613281 191.492188 C 246.515625 192.46875 246.757812 193.078125 245.234375 194.605469 C 245.417969 195.945312 245.664062 195.578125 245.601562 196.613281 C 245.480469 197.714844 245.113281 197.46875 244.929688 198.8125 C 246.699219 201.070312 250.359375 202.960938 249.871094 206.496094 C 247.675781 207.65625 247.25 205.886719 244.257812 205.582031 C 243.648438 208.023438 243.890625 207.414062 241.085938 207.777344 C 239.316406 208.023438 237.609375 207.105469 237.367188 205.707031 C 236.9375 203.628906 238.890625 203.507812 238.890625 201.679688 C 238.890625 200.277344 238.707031 199.480469 237.914062 198.871094 C 236.144531 200.582031 239.316406 201.679688 232.972656 205.949219 C 227.484375 209.671875 231.203125 211.074219 227.421875 212.472656 C 223.089844 214.121094 225.652344 213.511719 222.300781 219.492188 C 220.589844 222.601562 219.125 224.492188 221.199219 228.703125 C 223.273438 229.859375 222.910156 227.972656 223.640625 230.839844 C 224.371094 234.007812 224.980469 234.742188 228.03125 235.714844 " fill-opacity="1" fill-rule="evenodd"/></g><g fill="#000000" fill-opacity="1"><g transform="translate(515.446813, 346.911492)"><g><path d="M 10.421875 0 L 54.96875 0 L 54.96875 -8.375 L 19.40625 -8.375 L 19.40625 -32.28125 L 51.296875 -32.28125 L 51.296875 -40.5625 L 19.40625 -40.5625 L 19.40625 -63.140625 L 53.84375 -63.140625 L 53.84375 -71.515625 L 10.421875 -71.515625 Z M 10.421875 0 "/></g></g></g><g fill="#000000" fill-opacity="1"><g transform="translate(571.938133, 346.911492)"><g><path d="M 10.421875 0 L 19.3125 0 L 19.3125 -55.984375 L 58.84375 0 L 67.234375 0 L 67.234375 -71.515625 L 58.4375 -71.515625 L 58.4375 -15.53125 L 18.90625 -71.515625 L 10.421875 -71.515625 Z M 10.421875 0 "/></g></g></g><g fill="#000000" fill-opacity="1"><g transform="translate(644.467846, 346.911492)"><g><path d="M 30.25 0 L 38.625 0 L 67.03125 -71.515625 L 57.515625 -71.515625 L 45.5625 -41.375 L 34.4375 -12.96875 L 23.1875 -41.375 L 11.34375 -71.515625 L 1.734375 -71.515625 Z M 30.25 0 "/></g></g></g><g fill="#000000" fill-opacity="1"><g transform="translate(708.110047, 346.911492)"><g><path d="M 10.421875 0 L 19.40625 0 L 19.40625 -71.515625 L 10.421875 -71.515625 Z M 10.421875 0 "/></g></g></g><g fill="#000000" fill-opacity="1"><g transform="translate(732.831068, 346.911492)"><g><path d="M 10.421875 0 L 19.40625 0 L 19.40625 -25.640625 L 35.140625 -25.640625 L 52.625 0 L 63.453125 0 L 45.46875 -26.5625 C 55.890625 -29.125 62.328125 -36.984375 62.328125 -48.53125 C 62.328125 -62.734375 52.515625 -71.515625 37.703125 -71.515625 L 10.421875 -71.515625 Z M 19.40625 -34.234375 L 19.40625 -62.9375 L 36.6875 -62.9375 C 47.09375 -62.9375 53.125 -57.625 53.125 -48.53125 C 53.125 -39.4375 47.09375 -34.234375 36.6875 -34.234375 Z M 19.40625 -34.234375 "/></g></g></g><g fill="#000000" fill-opacity="1"><g transform="translate(797.29052, 346.911492)"><g><path d="M 42.90625 1.328125 C 64.671875 1.328125 80 -14 80 -35.765625 C 80 -57.515625 64.671875 -72.84375 42.90625 -72.84375 C 21.15625 -72.84375 5.921875 -57.515625 5.921875 -35.765625 C 5.921875 -14 21.15625 1.328125 42.90625 1.328125 Z M 15.125 -35.765625 C 15.125 -52.421875 26.46875 -63.859375 42.90625 -63.859375 C 59.359375 -63.859375 70.703125 -52.421875 70.703125 -35.765625 C 70.703125 -19.109375 59.359375 -7.65625 42.90625 -7.65625 C 26.46875 -7.65625 15.125 -19.109375 15.125 -35.765625 Z M 15.125 -35.765625 "/></g></g></g><g fill="#000000" fill-opacity="1"><g transform="translate(877.992644, 346.911492)"><g><path d="M 10.421875 0 L 19.3125 0 L 19.3125 -55.984375 L 58.84375 0 L 67.234375 0 L 67.234375 -71.515625 L 58.4375 -71.515625 L 58.4375 -15.53125 L 18.90625 -71.515625 L 10.421875 -71.515625 Z M 10.421875 0 "/></g></g></g><g fill="#000000" fill-opacity="1"><g transform="translate(950.522345, 346.911492)"><g><path d="M 10.421875 0 L 19.40625 0 L 19.40625 -54.765625 L 43.109375 -19 L 50.46875 -19 L 74.171875 -54.65625 L 74.171875 0 L 83.171875 0 L 83.171875 -71.515625 L 74.796875 -71.515625 L 46.890625 -29.125 L 18.796875 -71.515625 L 10.421875 -71.515625 Z M 10.421875 0 "/></g></g></g><g fill="#000000" fill-opacity="1"><g transform="translate(1038.988288, 346.911492)"><g><path d="M 10.421875 0 L 54.96875 0 L 54.96875 -8.375 L 19.40625 -8.375 L 19.40625 -32.28125 L 51.296875 -32.28125 L 51.296875 -40.5625 L 19.40625 -40.5625 L 19.40625 -63.140625 L 53.84375 -63.140625 L 53.84375 -71.515625 L 10.421875 -71.515625 Z M 10.421875 0 "/></g></g></g><g fill="#000000" fill-opacity="1"><g transform="translate(1095.479619, 346.911492)"><g><path d="M 10.421875 0 L 19.3125 0 L 19.3125 -55.984375 L 58.84375 0 L 67.234375 0 L 67.234375 -71.515625 L 58.4375 -71.515625 L 58.4375 -15.53125 L 18.90625 -71.515625 L 10.421875 -71.515625 Z M 10.421875 0 "/></g></g></g><g fill="#000000" fill-opacity="1"><g transform="translate(1168.00932, 346.911492)"><g><path d="M 27.6875 0 L 36.6875 0 L 36.6875 -62.9375 L 60.796875 -62.9375 L 60.796875 -71.515625 L 3.46875 -71.515625 L 3.46875 -62.9375 L 27.6875 -62.9375 Z M 27.6875 0 "/></g></g></g><g fill="#000000" fill-opacity="1"><g transform="translate(1227.258835, 346.911492)"><g><path d="M 1.734375 0 L 11.34375 0 L 17.875 -16.25 L 52.71875 -16.25 L 59.46875 0 L 68.96875 0 L 39.546875 -71.515625 L 31.15625 -71.515625 Z M 21.359375 -24.625 L 35.34375 -58.953125 L 49.34375 -24.625 Z M 21.359375 -24.625 "/></g></g></g><g fill="#000000" fill-opacity="1"><g transform="translate(1292.842013, 346.911492)"><g><path d="M 10.421875 0 L 54.15625 0 L 54.15625 -8.578125 L 19.40625 -8.578125 L 19.40625 -71.515625 L 10.421875 -71.515625 Z M 10.421875 0 "/></g></g></g><g fill="#ffffff" fill-opacity="1"><g transform="translate(1345.053076, 346.911492)"><g/></g></g><g fill="#0a7e9d" fill-opacity="1"><g transform="translate(515.284179, 224.711683)"><g><path d="M 36.5 1.421875 C 53.171875 1.421875 63.953125 -6.75 63.953125 -20.046875 C 63.953125 -31.265625 56.4375 -38.03125 36.9375 -42.8125 C 22.125 -46.421875 17.21875 -50.34375 17.21875 -56.65625 C 17.21875 -63.953125 23.75 -68.53125 34.640625 -68.53125 C 45.875 -68.53125 52.84375 -62.859375 53.0625 -53.71875 L 62.546875 -53.71875 C 62.4375 -68.53125 51.75 -77.6875 34.640625 -77.6875 C 17.984375 -77.6875 7.40625 -69.515625 7.40625 -56.65625 C 7.40625 -44.890625 15.796875 -38.34375 34.53125 -33.890625 C 48.265625 -30.609375 54.046875 -26.796875 54.046875 -19.71875 C 54.046875 -12.203125 47.28125 -7.734375 36.5 -7.734375 C 24.625 -7.734375 16.34375 -13.625 16.125 -23.421875 L 6.53125 -23.421875 C 6.640625 -8.5 18.296875 1.421875 36.5 1.421875 Z M 36.5 1.421875 "/></g></g></g><g fill="#000000" fill-opacity="1"><g transform="translate(580.324018, 224.711683)"><g><path d="M 11.109375 0 L 58.609375 0 L 58.609375 -8.9375 L 20.703125 -8.9375 L 20.703125 -34.421875 L 54.6875 -34.421875 L 54.6875 -43.25 L 20.703125 -43.25 L 20.703125 -67.328125 L 57.421875 -67.328125 L 57.421875 -76.265625 L 11.109375 -76.265625 Z M 11.109375 0 "/></g></g></g><g fill="#000000" fill-opacity="1"><g transform="translate(640.564002, 224.711683)"><g><path d="M 11.109375 0 L 20.703125 0 L 20.703125 -32.140625 L 51.96875 -32.140625 L 51.96875 -40.96875 L 20.703125 -40.96875 L 20.703125 -67.328125 L 54.796875 -67.328125 L 54.796875 -76.265625 L 11.109375 -76.265625 Z M 11.109375 0 "/></g></g></g><g fill="#000000" fill-opacity="1"><g transform="translate(695.901941, 224.711683)"><g><path d="M 44.890625 1.421875 C 63.40625 1.421875 78.453125 -9.8125 83.015625 -26.796875 L 72.890625 -26.796875 C 68.96875 -15.359375 58.1875 -8.171875 45.21875 -8.171875 C 28.21875 -8.171875 16.125 -20.484375 16.125 -38.140625 C 16.125 -55.78125 28.21875 -68.09375 45.21875 -68.09375 C 57.859375 -68.09375 68.203125 -61.34375 72.125 -50.34375 L 82.375 -50.34375 C 77.359375 -67.109375 62.859375 -77.6875 44.890625 -77.6875 C 22.4375 -77.6875 6.3125 -61.125 6.3125 -38.140625 C 6.3125 -15.140625 22.4375 1.421875 44.890625 1.421875 Z M 44.890625 1.421875 "/></g></g></g><g fill="#000000" fill-opacity="1"><g transform="translate(779.344949, 224.711683)"><g><path d="M 45.765625 1.421875 C 68.96875 1.421875 85.3125 -14.921875 85.3125 -38.140625 C 85.3125 -61.34375 68.96875 -77.6875 45.765625 -77.6875 C 22.546875 -77.6875 6.3125 -61.34375 6.3125 -38.140625 C 6.3125 -14.921875 22.546875 1.421875 45.765625 1.421875 Z M 16.125 -38.140625 C 16.125 -55.890625 28.21875 -68.09375 45.765625 -68.09375 C 63.296875 -68.09375 75.390625 -55.890625 75.390625 -38.140625 C 75.390625 -20.375 63.296875 -8.171875 45.765625 -8.171875 C 28.21875 -8.171875 16.125 -20.375 16.125 -38.140625 Z M 16.125 -38.140625 "/></g></g></g><g fill="#000000" fill-opacity="1"><g transform="translate(865.402381, 224.711683)"><g><path d="M 11.109375 0 L 20.703125 0 L 20.703125 -58.40625 L 45.984375 -20.265625 L 53.828125 -20.265625 L 79.09375 -58.296875 L 79.09375 0 L 88.6875 0 L 88.6875 -76.265625 L 79.75 -76.265625 L 50.015625 -31.046875 L 20.046875 -76.265625 L 11.109375 -76.265625 Z M 11.109375 0 "/></g></g></g><g fill="#1a1a1a" fill-opacity="1"><g transform="translate(959.744544, 224.711683)"><g/></g></g><g fill="#1a1a1a" fill-opacity="1"><g transform="translate(981.312814, 224.711683)"><g/></g></g><g fill="#739e2f" fill-opacity="1"><g transform="translate(511.604966, 468.903514)"><g><path d="M 42.09375 1.328125 C 59.46875 1.328125 73.5625 -9.203125 77.859375 -25.140625 L 68.359375 -25.140625 C 64.671875 -14.40625 54.5625 -7.65625 42.40625 -7.65625 C 26.46875 -7.65625 15.125 -19.203125 15.125 -35.765625 C 15.125 -52.3125 26.46875 -63.859375 42.40625 -63.859375 C 54.25 -63.859375 63.953125 -57.515625 67.640625 -47.203125 L 77.234375 -47.203125 C 72.546875 -62.9375 58.953125 -72.84375 42.09375 -72.84375 C 21.046875 -72.84375 5.921875 -57.3125 5.921875 -35.765625 C 5.921875 -14.203125 21.046875 1.328125 42.09375 1.328125 Z M 42.09375 1.328125 "/></g></g></g><g fill="#000000" fill-opacity="1"><g transform="translate(589.863522, 468.903514)"><g><path d="M 42.90625 1.328125 C 64.671875 1.328125 80 -14 80 -35.765625 C 80 -57.515625 64.671875 -72.84375 42.90625 -72.84375 C 21.15625 -72.84375 5.921875 -57.515625 5.921875 -35.765625 C 5.921875 -14 21.15625 1.328125 42.90625 1.328125 Z M 15.125 -35.765625 C 15.125 -52.421875 26.46875 -63.859375 42.90625 -63.859375 C 59.359375 -63.859375 70.703125 -52.421875 70.703125 -35.765625 C 70.703125 -19.109375 59.359375 -7.65625 42.90625 -7.65625 C 26.46875 -7.65625 15.125 -19.109375 15.125 -35.765625 Z M 15.125 -35.765625 "/></g></g></g><g fill="#000000" fill-opacity="1"><g transform="translate(670.565657, 468.903514)"><g><path d="M 10.421875 0 L 19.3125 0 L 19.3125 -55.984375 L 58.84375 0 L 67.234375 0 L 67.234375 -71.515625 L 58.4375 -71.515625 L 58.4375 -15.53125 L 18.90625 -71.515625 L 10.421875 -71.515625 Z M 10.421875 0 "/></g></g></g><g fill="#000000" fill-opacity="1"><g transform="translate(743.09537, 468.903514)"><g><path d="M 34.234375 1.328125 C 49.859375 1.328125 59.96875 -6.328125 59.96875 -18.796875 C 59.96875 -29.328125 52.921875 -35.65625 34.640625 -40.15625 C 20.734375 -43.53125 16.140625 -47.203125 16.140625 -53.125 C 16.140625 -59.96875 22.28125 -64.265625 32.484375 -64.265625 C 43.015625 -64.265625 49.546875 -58.953125 49.75 -50.375 L 58.640625 -50.375 C 58.546875 -64.265625 48.53125 -72.84375 32.484375 -72.84375 C 16.859375 -72.84375 6.953125 -65.1875 6.953125 -53.125 C 6.953125 -42.09375 14.8125 -35.96875 32.390625 -31.78125 C 45.265625 -28.703125 50.671875 -25.140625 50.671875 -18.5 C 50.671875 -11.4375 44.34375 -7.25 34.234375 -7.25 C 23.09375 -7.25 15.328125 -12.765625 15.125 -21.96875 L 6.125 -21.96875 C 6.234375 -7.96875 17.171875 1.328125 34.234375 1.328125 Z M 34.234375 1.328125 "/></g></g></g><g fill="#000000" fill-opacity="1"><g transform="translate(804.081539, 468.903514)"><g><path d="M 37.1875 1.21875 C 54.453125 1.21875 64.875 -10.109375 64.875 -29.125 L 64.875 -71.515625 L 55.890625 -71.515625 L 55.890625 -29.734375 C 55.890625 -15.125 49.453125 -7.5625 37.1875 -7.5625 C 25.03125 -7.5625 18.5 -15.125 18.5 -29.734375 L 18.5 -71.515625 L 9.609375 -71.515625 L 9.609375 -29.125 C 9.609375 -10.109375 19.921875 1.21875 37.1875 1.21875 Z M 37.1875 1.21875 "/></g></g></g><g fill="#000000" fill-opacity="1"><g transform="translate(873.444431, 468.903514)"><g><path d="M 10.421875 0 L 54.15625 0 L 54.15625 -8.578125 L 19.40625 -8.578125 L 19.40625 -71.515625 L 10.421875 -71.515625 Z M 10.421875 0 "/></g></g></g><g fill="#000000" fill-opacity="1"><g transform="translate(925.645227, 468.903514)"><g><path d="M 27.6875 0 L 36.6875 0 L 36.6875 -62.9375 L 60.796875 -62.9375 L 60.796875 -71.515625 L 3.46875 -71.515625 L 3.46875 -62.9375 L 27.6875 -62.9375 Z M 27.6875 0 "/></g></g></g><g fill="#000000" fill-opacity="1"><g transform="translate(984.894741, 468.903514)"><g><path d="M 10.421875 0 L 19.40625 0 L 19.40625 -71.515625 L 10.421875 -71.515625 Z M 10.421875 0 "/></g></g></g><g fill="#000000" fill-opacity="1"><g transform="translate(1009.615762, 468.903514)"><g><path d="M 10.421875 0 L 19.3125 0 L 19.3125 -55.984375 L 58.84375 0 L 67.234375 0 L 67.234375 -71.515625 L 58.4375 -71.515625 L 58.4375 -15.53125 L 18.90625 -71.515625 L 10.421875 -71.515625 Z M 10.421875 0 "/></g></g></g><g fill="#000000" fill-opacity="1"><g transform="translate(1082.145463, 468.903514)"><g><path d="M 42.296875 1.328125 C 64.265625 1.328125 79.078125 -15.328125 78.671875 -38.828125 L 39.84375 -38.828125 L 39.84375 -30.25 L 68.96875 -30.25 C 67.125 -16.75 56.90625 -7.65625 42.5 -7.65625 C 26.46875 -7.65625 15.125 -19.203125 15.125 -35.765625 C 15.125 -52.3125 26.359375 -63.859375 42.40625 -63.859375 C 53.4375 -63.859375 62.21875 -58.4375 66.71875 -49.25 L 76.53125 -49.25 C 71.921875 -63.34375 58.4375 -72.84375 42.09375 -72.84375 C 21.15625 -72.84375 5.921875 -57.21875 5.921875 -35.765625 C 5.921875 -14.203125 21.25 1.328125 42.296875 1.328125 Z M 42.296875 1.328125 "/></g></g></g></svg>
